<?xml version="1.0" encoding="utf-8"?>
<!-- Svg Vector Icons : http://www.onlinewebfonts.com/icon -->
<!DOCTYPE svg PUBLIC "-//W3C//DTD SVG 1.1//EN" "http://www.w3.org/Graphics/SVG/1.1/DTD/svg11.dtd">
<svg version="1.1" xmlns="http://www.w3.org/2000/svg" xmlns:xlink="http://www.w3.org/1999/xlink" x="0px" y="0px" viewBox="0 0 256 256" enable-background="new 0 0 256 256" xml:space="preserve">
<metadata> Svg Vector Icons : http://www.onlinewebfonts.com/icon </metadata>
<g><g><g><path fill="#000000" d="M230.2,68.8c-10.5-18.1-24.9-32.4-42.9-42.9C169.2,15.3,149.4,10,128,10c-21.4,0-41.2,5.3-59.2,15.8C50.7,36.4,36.4,50.7,25.8,68.8C15.3,86.8,10,106.6,10,128c0,21.4,5.3,41.2,15.8,59.2c10.5,18.1,24.9,32.4,42.9,42.9C86.8,240.7,106.6,246,128,246c21.4,0,41.2-5.3,59.2-15.8c18.1-10.5,32.4-24.9,42.9-42.9c10.5-18.1,15.8-37.8,15.8-59.2C246,106.6,240.7,86.8,230.2,68.8z M184.1,167.3l-16-24.6H87.9l-16,24.6H57.5L128,61.2l70.5,106.2L184.1,167.3L184.1,167.3z M128,85.9l30.9,47H97.1L128,85.9z"/></g><g></g><g></g><g></g><g></g><g></g><g></g><g></g><g></g><g></g><g></g><g></g><g></g><g></g><g></g><g></g></g></g>
</svg>